<mxfile host="drawio-plugin" modified="2023-03-07T13:18:39.760Z" agent="5.0 (Windows NT 6.2; Win64; x64) AppleWebKit/537.36 (KHTML, like Gecko) Chrome/104.0.5112.102 Safari/537.36" etag="rPNFjQjmnmyBOhvJaHD9" version="20.5.3" type="embed"><diagram name="Lesson 1" id="9rfit8NfDstACTDksjje"><mxGraphModel dx="899" dy="743" grid="1" gridSize="10" guides="1" tooltips="1" connect="1" arrows="1" fold="1" page="1" pageScale="1" pageWidth="827" pageHeight="1169" math="0" shadow="0"><root><mxCell id="0"/><mxCell id="1" parent="0"/><mxCell id="S7hohs7HGX6TS_TGtXKc-8" style="edgeStyle=orthogonalEdgeStyle;rounded=0;orthogonalLoop=1;jettySize=auto;html=1;exitX=0.5;exitY=1;exitDx=0;exitDy=0;fontSize=14;" parent="1" source="S7hohs7HGX6TS_TGtXKc-2" target="S7hohs7HGX6TS_TGtXKc-3" edge="1"><mxGeometry relative="1" as="geometry"/></mxCell><mxCell id="S7hohs7HGX6TS_TGtXKc-2" value="&lt;font style=&quot;font-size: 14px;&quot;&gt;Начало&lt;/font&gt;" style="ellipse;whiteSpace=wrap;html=1;" parent="1" vertex="1"><mxGeometry x="320" y="10" width="240" height="90" as="geometry"/></mxCell><mxCell id="S7hohs7HGX6TS_TGtXKc-10" style="edgeStyle=orthogonalEdgeStyle;rounded=0;orthogonalLoop=1;jettySize=auto;html=1;entryX=0.5;entryY=0;entryDx=0;entryDy=0;fontSize=14;" parent="1" source="S7hohs7HGX6TS_TGtXKc-3" target="S7hohs7HGX6TS_TGtXKc-9" edge="1"><mxGeometry relative="1" as="geometry"/></mxCell><mxCell id="S7hohs7HGX6TS_TGtXKc-3" value="вывод&lt;br&gt;&quot;Введите два числа&quot;" style="shape=parallelogram;perimeter=parallelogramPerimeter;whiteSpace=wrap;html=1;fixedSize=1;fontSize=14;" parent="1" vertex="1"><mxGeometry x="320" y="160" width="240" height="80" as="geometry"/></mxCell><mxCell id="S7hohs7HGX6TS_TGtXKc-23" style="edgeStyle=orthogonalEdgeStyle;rounded=0;orthogonalLoop=1;jettySize=auto;html=1;exitX=0.5;exitY=1;exitDx=0;exitDy=0;entryX=0.5;entryY=0;entryDx=0;entryDy=0;fontSize=14;" parent="1" source="S7hohs7HGX6TS_TGtXKc-9" target="S7hohs7HGX6TS_TGtXKc-11" edge="1"><mxGeometry relative="1" as="geometry"/></mxCell><mxCell id="S7hohs7HGX6TS_TGtXKc-9" value="Ввод&lt;br&gt;a, b" style="shape=parallelogram;perimeter=parallelogramPerimeter;whiteSpace=wrap;html=1;fixedSize=1;fontSize=14;" parent="1" vertex="1"><mxGeometry x="360" y="300" width="160" height="60" as="geometry"/></mxCell><mxCell id="S7hohs7HGX6TS_TGtXKc-17" style="edgeStyle=orthogonalEdgeStyle;rounded=0;orthogonalLoop=1;jettySize=auto;html=1;fontSize=14;" parent="1" source="S7hohs7HGX6TS_TGtXKc-11" target="S7hohs7HGX6TS_TGtXKc-26" edge="1"><mxGeometry relative="1" as="geometry"><mxPoint x="600" y="520" as="targetPoint"/><Array as="points"><mxPoint x="600" y="460"/></Array></mxGeometry></mxCell><mxCell id="S7hohs7HGX6TS_TGtXKc-18" style="edgeStyle=orthogonalEdgeStyle;rounded=0;orthogonalLoop=1;jettySize=auto;html=1;fontSize=14;" parent="1" source="S7hohs7HGX6TS_TGtXKc-11" edge="1"><mxGeometry relative="1" as="geometry"><mxPoint x="280" y="520" as="targetPoint"/></mxGeometry></mxCell><mxCell id="S7hohs7HGX6TS_TGtXKc-11" value="b&amp;nbsp;≠ 0" style="rhombus;whiteSpace=wrap;html=1;fontSize=14;" parent="1" vertex="1"><mxGeometry x="360" y="420" width="160" height="80" as="geometry"/></mxCell><mxCell id="S7hohs7HGX6TS_TGtXKc-24" value="Нет" style="text;html=1;strokeColor=none;fillColor=none;align=center;verticalAlign=middle;whiteSpace=wrap;rounded=0;fontSize=14;" parent="1" vertex="1"><mxGeometry x="320" y="390" width="60" height="30" as="geometry"/></mxCell><mxCell id="S7hohs7HGX6TS_TGtXKc-25" value="Да" style="text;html=1;strokeColor=none;fillColor=none;align=center;verticalAlign=middle;whiteSpace=wrap;rounded=0;fontSize=14;" parent="1" vertex="1"><mxGeometry x="500" y="390" width="60" height="30" as="geometry"/></mxCell><mxCell id="S7hohs7HGX6TS_TGtXKc-28" style="edgeStyle=orthogonalEdgeStyle;rounded=0;orthogonalLoop=1;jettySize=auto;html=1;entryX=0.5;entryY=0;entryDx=0;entryDy=0;fontSize=14;" parent="1" source="S7hohs7HGX6TS_TGtXKc-26" target="S7hohs7HGX6TS_TGtXKc-27" edge="1"><mxGeometry relative="1" as="geometry"/></mxCell><mxCell id="S7hohs7HGX6TS_TGtXKc-26" value="c = a / b" style="rounded=0;whiteSpace=wrap;html=1;fontSize=14;" parent="1" vertex="1"><mxGeometry x="540" y="525" width="120" height="60" as="geometry"/></mxCell><mxCell id="S7hohs7HGX6TS_TGtXKc-32" style="edgeStyle=orthogonalEdgeStyle;rounded=0;orthogonalLoop=1;jettySize=auto;html=1;exitX=0.5;exitY=1;exitDx=0;exitDy=0;fontSize=14;" parent="1" source="S7hohs7HGX6TS_TGtXKc-27" edge="1"><mxGeometry relative="1" as="geometry"><mxPoint x="460" y="750" as="targetPoint"/></mxGeometry></mxCell><mxCell id="S7hohs7HGX6TS_TGtXKc-27" value="Вывод&lt;br&gt;c" style="shape=parallelogram;perimeter=parallelogramPerimeter;whiteSpace=wrap;html=1;fixedSize=1;fontSize=14;" parent="1" vertex="1"><mxGeometry x="540" y="630" width="120" height="60" as="geometry"/></mxCell><mxCell id="S7hohs7HGX6TS_TGtXKc-31" style="edgeStyle=orthogonalEdgeStyle;rounded=0;orthogonalLoop=1;jettySize=auto;html=1;entryX=0.522;entryY=0.111;entryDx=0;entryDy=0;entryPerimeter=0;fontSize=14;" parent="1" source="S7hohs7HGX6TS_TGtXKc-29" target="S7hohs7HGX6TS_TGtXKc-30" edge="1"><mxGeometry relative="1" as="geometry"/></mxCell><mxCell id="S7hohs7HGX6TS_TGtXKc-29" value="Вывод&lt;br&gt;&quot;Нет решений&quot;" style="shape=parallelogram;perimeter=parallelogramPerimeter;whiteSpace=wrap;html=1;fixedSize=1;fontSize=14;" parent="1" vertex="1"><mxGeometry x="210" y="520" width="140" height="70" as="geometry"/></mxCell><mxCell id="S7hohs7HGX6TS_TGtXKc-30" value="&lt;font style=&quot;font-size: 14px;&quot;&gt;Конец&lt;/font&gt;" style="ellipse;whiteSpace=wrap;html=1;fontSize=14;" parent="1" vertex="1"><mxGeometry x="340" y="750" width="230" height="90" as="geometry"/></mxCell></root></mxGraphModel></diagram></mxfile>